<?xml version="1.0" encoding="UTF-8" standalone="no"?>
<svg
   xmlns:dc="http://purl.org/dc/elements/1.1/"
   xmlns:cc="http://creativecommons.org/ns#"
   xmlns:rdf="http://www.w3.org/1999/02/22-rdf-syntax-ns#"
   xmlns:svg="http://www.w3.org/2000/svg"
   xmlns="http://www.w3.org/2000/svg"
   xmlns:sodipodi="http://sodipodi.sourceforge.net/DTD/sodipodi-0.dtd"
   xmlns:inkscape="http://www.inkscape.org/namespaces/inkscape"
   aria-hidden="true"
   focusable="false"
   data-prefix="fas"
   data-icon="microchip"
   class="svg-inline--fa fa-microchip fa-w-16"
   role="img"
   viewBox="0 0 16 16"
   version="1.1"
   id="svg4"
   sodipodi:docname="memory-limit.svg"
   width="16"
   height="16"
   inkscape:version="0.92.3 (2405546, 2018-03-11)">
  <metadata
     id="metadata10">
    <rdf:RDF>
      <cc:Work
         rdf:about="">
        <dc:format>image/svg+xml</dc:format>
        <dc:type
           rdf:resource="http://purl.org/dc/dcmitype/StillImage" />
        <dc:title></dc:title>
      </cc:Work>
    </rdf:RDF>
  </metadata>
  <defs
     id="defs8" />
  <sodipodi:namedview
     pagecolor="#ffffff"
     bordercolor="#666666"
     borderopacity="1"
     objecttolerance="10"
     gridtolerance="10"
     guidetolerance="10"
     inkscape:pageopacity="0"
     inkscape:pageshadow="2"
     inkscape:window-width="1920"
     inkscape:window-height="1022"
     id="namedview6"
     showgrid="false"
     fit-margin-top="0"
     fit-margin-left="0"
     fit-margin-right="0"
     fit-margin-bottom="0"
     inkscape:zoom="20.85965"
     inkscape:cx="4.8450442"
     inkscape:cy="18.692941"
     inkscape:window-x="0"
     inkscape:window-y="33"
     inkscape:window-maximized="1"
     inkscape:current-layer="svg4" />
  <path
     d="m 13,1.5 v 13 c 0,0.82844 -0.67156,1.5 -1.5,1.5 h -7 C 3.67156,16 3,15.32844 3,14.5 V 1.5 C 3,0.67156 3.67156,0 4.5,0 h 7 C 12.32844,0 13,0.67156 13,1.5 Z m 3,1.8125 v 0.375 A 0.1875,0.1875 0 0 1 15.8125,3.875 H 15.25 V 4.0625 A 0.1875,0.1875 0 0 1 15.0625,4.25 H 13.75 v -1.5 h 1.3125 A 0.1875,0.1875 0 0 1 15.25,2.9375 V 3.125 h 0.5625 A 0.1875,0.1875 0 0 1 16,3.3125 Z m 0,3 v 0.375 A 0.1875,0.1875 0 0 1 15.8125,6.875 H 15.25 V 7.0625 A 0.1875,0.1875 0 0 1 15.0625,7.25 H 13.75 v -1.5 h 1.3125 A 0.1875,0.1875 0 0 1 15.25,5.9375 V 6.125 h 0.5625 A 0.1875,0.1875 0 0 1 16,6.3125 Z m 0,3 v 0.375 A 0.1875,0.1875 0 0 1 15.8125,9.875 H 15.25 v 0.1875 A 0.1875,0.1875 0 0 1 15.0625,10.25 H 13.75 v -1.5 h 1.3125 A 0.1875,0.1875 0 0 1 15.25,8.9375 V 9.125 h 0.5625 A 0.1875,0.1875 0 0 1 16,9.3125 Z m 0,3 v 0.375 A 0.1875,0.1875 0 0 1 15.8125,12.875 H 15.25 v 0.1875 A 0.1875,0.1875 0 0 1 15.0625,13.25 H 13.75 v -1.5 h 1.3125 a 0.1875,0.1875 0 0 1 0.1875,0.1875 v 0.1875 h 0.5625 A 0.1875,0.1875 0 0 1 16,12.3125 Z M 0.9375,11.75 H 2.25 v 1.5 H 0.9375 A 0.1875,0.1875 0 0 1 0.75,13.0625 V 12.875 H 0.1875 A 0.1875,0.1875 0 0 1 0,12.6875 v -0.375 A 0.1875,0.1875 0 0 1 0.1875,12.125 H 0.75 V 11.9375 A 0.1875,0.1875 0 0 1 0.9375,11.75 Z m 0,-3 H 2.25 v 1.5 H 0.9375 A 0.1875,0.1875 0 0 1 0.75,10.0625 V 9.875 H 0.1875 A 0.1875,0.1875 0 0 1 0,9.6875 V 9.3125 A 0.1875,0.1875 0 0 1 0.1875,9.125 H 0.75 V 8.9375 A 0.1875,0.1875 0 0 1 0.9375,8.75 Z m 0,-3 H 2.25 v 1.5 H 0.9375 A 0.1875,0.1875 0 0 1 0.75,7.0625 V 6.875 H 0.1875 A 0.1875,0.1875 0 0 1 0,6.6875 V 6.3125 A 0.1875,0.1875 0 0 1 0.1875,6.125 H 0.75 V 5.9375 A 0.1875,0.1875 0 0 1 0.9375,5.75 Z m 0,-3 H 2.25 v 1.5 H 0.9375 A 0.1875,0.1875 0 0 1 0.75,4.0625 V 3.875 H 0.1875 A 0.1875,0.1875 0 0 1 0,3.6875 V 3.3125 A 0.1875,0.1875 0 0 1 0.1875,3.125 H 0.75 V 2.9375 A 0.1875,0.1875 0 0 1 0.9375,2.75 Z"
     id="path2"
     inkscape:connector-curvature="0"
     style="fill:#db5860;stroke-width:0.03125;fill-opacity:1" />
</svg>
