<?xml version="1.0" encoding="UTF-8" standalone="no"?>
<svg
   xmlns:dc="http://purl.org/dc/elements/1.1/"
   xmlns:cc="http://creativecommons.org/ns#"
   xmlns:rdf="http://www.w3.org/1999/02/22-rdf-syntax-ns#"
   xmlns:svg="http://www.w3.org/2000/svg"
   xmlns="http://www.w3.org/2000/svg"
   xmlns:sodipodi="http://sodipodi.sourceforge.net/DTD/sodipodi-0.dtd"
   xmlns:inkscape="http://www.inkscape.org/namespaces/inkscape"
   width="16"
   height="16"
   viewBox="0 0 16 16"
   version="1.1"
   id="svg4"
   sodipodi:docname="runtime-error_dark.svg"
   inkscape:version="0.92.3 (2405546, 2018-03-11)">
  <metadata
     id="metadata10">
    <rdf:RDF>
      <cc:Work
         rdf:about="">
        <dc:format>image/svg+xml</dc:format>
        <dc:type
           rdf:resource="http://purl.org/dc/dcmitype/StillImage" />
        <dc:title></dc:title>
      </cc:Work>
    </rdf:RDF>
  </metadata>
  <defs
     id="defs8" />
  <sodipodi:namedview
     pagecolor="#ffffff"
     bordercolor="#666666"
     borderopacity="1"
     objecttolerance="10"
     gridtolerance="10"
     guidetolerance="10"
     inkscape:pageopacity="0"
     inkscape:pageshadow="2"
     inkscape:window-width="1920"
     inkscape:window-height="1022"
     id="namedview6"
     showgrid="false"
     inkscape:zoom="47.6792"
     inkscape:cx="7.783281"
     inkscape:cy="7.7783129"
     inkscape:window-x="0"
     inkscape:window-y="33"
     inkscape:window-maximized="1"
     inkscape:current-layer="svg4" />
  <path
     d="m 12.197776,4.2149083 q 0.172923,0.1921371 0.06725,0.4227002 L 7.0773328,15.752717 q -0.1248891,0.240171 -0.4034866,0.240171 -0.038428,0 -0.134496,-0.01921 -0.1633166,-0.04804 -0.244974,-0.18253 -0.081659,-0.134496 -0.04323,-0.288205 L 8.1436916,7.7406203 4.2433161,8.7109108 q -0.038427,0.0096 -0.1152817,0.0096 -0.1729232,0 -0.2978116,-0.1056751 Q 3.6572997,8.4707386 3.7053336,8.2401745 L 5.636308,0.31453548 Q 5.6747364,0.18003939 5.790017,0.09357731 5.9052989,0.00711205 6.0590081,0.00711205 h 3.1510423 q 0.1825297,0 0.3074189,0.12008556 0.1248886,0.12008558 0.1248886,0.28340165 0,0.0768604 -0.048034,0.17292303 L 7.9515551,5.0314865 11.755862,4.0900171 q 0.07686,-0.01921 0.115283,-0.01921 0.182529,0 0.326631,0.1441012 z"
     id="path2"
     style="fill:#c75450;fill-opacity:1;stroke-width:0.00960684"
     inkscape:connector-curvature="0" />
</svg>
