<?xml version="1.0" encoding="UTF-8" standalone="no"?>
<svg
   xmlns:dc="http://purl.org/dc/elements/1.1/"
   xmlns:cc="http://creativecommons.org/ns#"
   xmlns:rdf="http://www.w3.org/1999/02/22-rdf-syntax-ns#"
   xmlns:svg="http://www.w3.org/2000/svg"
   xmlns="http://www.w3.org/2000/svg"
   xmlns:sodipodi="http://sodipodi.sourceforge.net/DTD/sodipodi-0.dtd"
   xmlns:inkscape="http://www.inkscape.org/namespaces/inkscape"
   aria-hidden="true"
   focusable="false"
   data-prefix="fas"
   data-icon="scroll"
   class="svg-inline--fa fa-scroll fa-w-20"
   role="img"
   viewBox="0 0 16 16"
   version="1.1"
   id="svg4"
   sodipodi:docname="scroll-solid_dark.svg"
   width="16"
   height="16"
   inkscape:version="0.92.3 (2405546, 2018-03-11)">
  <metadata
     id="metadata10">
    <rdf:RDF>
      <cc:Work
         rdf:about="">
        <dc:format>image/svg+xml</dc:format>
        <dc:type
           rdf:resource="http://purl.org/dc/dcmitype/StillImage" />
        <dc:title></dc:title>
      </cc:Work>
    </rdf:RDF>
  </metadata>
  <defs
     id="defs8" />
  <sodipodi:namedview
     pagecolor="#ffffff"
     bordercolor="#666666"
     borderopacity="1"
     objecttolerance="10"
     gridtolerance="10"
     guidetolerance="10"
     inkscape:pageopacity="0"
     inkscape:pageshadow="2"
     inkscape:window-width="1920"
     inkscape:window-height="1022"
     id="namedview6"
     showgrid="false"
     inkscape:zoom="20.85965"
     inkscape:cx="10.42787"
     inkscape:cy="5.3114148"
     inkscape:window-x="0"
     inkscape:window-y="30"
     inkscape:window-maximized="1"
     inkscape:current-layer="svg4" />
  <path
     d="M 1.1999998,1.6000002 C 0.53825002,1.6000002 2.25e-7,2.13825 2.25e-7,2.7999997 v 1.6000006 c 0,0.2209994 0.179000405,0.3999998 0.399999845,0.3999998 H 2.4000005 V 2.7999997 c 0,-0.6617497 -0.5382509,-1.1999995 -1.2000007,-1.1999995 z M 6.4000013,11.914251 V 10.4 H 13.6 V 4.0000004 C 13.6,2.6764998 12.523501,1.6000002 11.200001,1.6000002 H 2.7897501 c 0.2537506,0.3352493 0.4102501,0.748001 0.4102501,1.1999995 v 9.2000013 c 0,0.97175 0.8662494,1.74125 1.8687507,1.578 0.7867489,-0.128 1.3312504,-0.866501 1.3312504,-1.66375 z m 0.7999997,-0.71425 v 0.8 C 7.200001,13.32325 6.1234992,14.4 4.7999997,14.4 H 13.2 c 1.546501,0 2.8,-1.2535 2.8,-2.799999 0,-0.221002 -0.178999,-0.4 -0.399999,-0.4 z"
     id="path2"
     style="fill:#c75450;fill-opacity:1;stroke-width:0.025"
     inkscape:connector-curvature="0" />
</svg>
