<?xml version="1.0" encoding="UTF-8" standalone="no"?>
<svg
   xmlns:dc="http://purl.org/dc/elements/1.1/"
   xmlns:cc="http://creativecommons.org/ns#"
   xmlns:rdf="http://www.w3.org/1999/02/22-rdf-syntax-ns#"
   xmlns:svg="http://www.w3.org/2000/svg"
   xmlns="http://www.w3.org/2000/svg"
   xmlns:xlink="http://www.w3.org/1999/xlink"
   xmlns:sodipodi="http://sodipodi.sourceforge.net/DTD/sodipodi-0.dtd"
   xmlns:inkscape="http://www.inkscape.org/namespaces/inkscape"
   width="16"
   height="16"
   viewBox="0 0 16 16"
   version="1.1"
   id="svg4"
   sodipodi:docname="avatar-default.svg"
   inkscape:version="0.92.3 (2405546, 2018-03-11)">
  <metadata
     id="metadata10">
    <rdf:RDF>
      <cc:Work
         rdf:about="">
        <dc:format>image/svg+xml</dc:format>
        <dc:type
           rdf:resource="http://purl.org/dc/dcmitype/StillImage" />
        <dc:title></dc:title>
      </cc:Work>
    </rdf:RDF>
  </metadata>
  <defs
     id="defs8">
    <clipPath
       clipPathUnits="userSpaceOnUse"
       id="clipPath1022">
      <use
         x="0"
         y="0"
         xlink:href="#g1018"
         id="use1024"
         width="100%"
         height="100%" />
    </clipPath>
  </defs>
  <sodipodi:namedview
     pagecolor="#ffffff"
     bordercolor="#666666"
     borderopacity="1"
     objecttolerance="10"
     gridtolerance="10"
     guidetolerance="10"
     inkscape:pageopacity="0"
     inkscape:pageshadow="2"
     inkscape:window-width="1920"
     inkscape:window-height="1020"
     id="namedview6"
     showgrid="false"
     inkscape:zoom="29.5"
     inkscape:cx="-0.79973402"
     inkscape:cy="14.215273"
     inkscape:window-x="0"
     inkscape:window-y="32"
     inkscape:window-maximized="1"
     inkscape:current-layer="g38"
     fit-margin-top="0"
     fit-margin-left="0"
     fit-margin-right="0"
     fit-margin-bottom="0"
     units="px" />
  <g
     id="g210"
     transform="matrix(0.0102422,0,0,0.0102422,-5.0385851,9.6603334)">
    <g
       id="g19">
      <g
         transform="matrix(1.0565421,0,0,1.0565421,999.40358,-90.918219)"
         style="fill:#1e94f3;fill-opacity:1;stroke:#ffffff;stroke-width:18.48204041;stroke-miterlimit:4;stroke-dasharray:none;stroke-opacity:1"
         id="g18">
        <g
           style="fill:#1e94f3;fill-opacity:1;stroke:#ffffff;stroke-width:18.48204041;stroke-miterlimit:4;stroke-dasharray:none;stroke-opacity:1"
           id="use16"
           transform="translate(134.1665,386.4595)">
          <g
             id="g38">
            <g
               id="g3762"
               transform="matrix(1.5,0,0,1.5,-62.406261,226.91934)">
              <g
                 id="g3752">
                <g
                   id="g3743">
                  <g
                     transform="matrix(92.410207,0,0,92.410207,-614.46913,-1193.1203)"
                     id="g1020"
                     clip-path="url(#clipPath1022)">
                    <g
                       inkscape:label="Clip"
                       id="g1018">
                      <g
                         id="g21">
                        <path
                           transform="translate(2.4,2.4)"
                           inkscape:connector-curvature="0"
                           id="path1032"
                           d="M 5.6,5.6 C 7.0733333,5.6 8.2666667,4.4066667 8.2666667,2.9333333 8.2666667,1.46 7.0733333,0.26666667 5.6,0.26666667 4.1266667,0.26666667 2.9333333,1.46 2.9333333,2.9333333 2.9333333,4.4066667 4.1266667,5.6 5.6,5.6 Z"
                           style="fill:#1e94f3;fill-opacity:1;stroke:none;stroke-opacity:1" />
                      </g>
                    </g>
                  </g>
                  <path
                     style="fill:#1e94f3;fill-opacity:1;stroke:none;stroke-width:1707.92919922;stroke-miterlimit:4;stroke-dasharray:none;stroke-opacity:1"
                     d="m 124.81253,-330.62503 c -164.490169,0 -492.85444,82.55312 -492.85444,246.427217 V 39.015766 H 617.66694 V -84.197813 c 0,-163.874097 -328.36424,-246.427217 -492.85441,-246.427217 z"
                     id="path2"
                     inkscape:connector-curvature="0" />
                  <path
                     inkscape:connector-curvature="0"
                     id="path202"
                     d="M 84.375,-239.65625 V -51.953125 H 100 c 22.65625,0 38.80078,-7.128906 48.4375,-21.390625 9.63281,-14.257812 14.45312,-38.50781 14.45312,-72.75 0,-33.98828 -4.82031,-58.07812 -14.45312,-72.26562 -9.63672,-14.19532 -25.78125,-21.29688 -48.4375,-21.29688 z m -57.609375,-51.95312 h 61.71875 c 47.656245,0 81.960935,11.36718 102.921875,34.09375 20.96875,22.71875 31.45312,59.85937 31.45312,111.42187 0,51.6875 -10.48437,88.960938 -31.45312,111.8125 C 170.44531,-11.425781 136.14062,0 88.484375,0 h -61.71875 z m 0,0"
                     style="fill:#1e94f3;fill-opacity:1;stroke:#ffffff;stroke-width:18.48204041;stroke-miterlimit:4;stroke-dasharray:none;stroke-opacity:1" />
                </g>
              </g>
            </g>
          </g>
        </g>
      </g>
    </g>
  </g>
</svg>
