<?xml version="1.0" encoding="UTF-8" standalone="no"?>
<svg
   xmlns:dc="http://purl.org/dc/elements/1.1/"
   xmlns:cc="http://creativecommons.org/ns#"
   xmlns:rdf="http://www.w3.org/1999/02/22-rdf-syntax-ns#"
   xmlns:svg="http://www.w3.org/2000/svg"
   xmlns="http://www.w3.org/2000/svg"
   xmlns:sodipodi="http://sodipodi.sourceforge.net/DTD/sodipodi-0.dtd"
   xmlns:inkscape="http://www.inkscape.org/namespaces/inkscape"
   aria-hidden="true"
   focusable="false"
   data-prefix="far"
   data-icon="calendar-alt"
   class="svg-inline--fa fa-calendar-alt fa-w-14"
   role="img"
   viewBox="0 0 16 16"
   version="1.1"
   id="svg4"
   sodipodi:docname="calendar.svg"
   width="16"
   height="16"
   inkscape:version="0.92.3 (2405546, 2018-03-11)">
  <metadata
     id="metadata10">
    <rdf:RDF>
      <cc:Work
         rdf:about="">
        <dc:format>image/svg+xml</dc:format>
        <dc:type
           rdf:resource="http://purl.org/dc/dcmitype/StillImage" />
        <dc:title></dc:title>
      </cc:Work>
    </rdf:RDF>
  </metadata>
  <defs
     id="defs8" />
  <sodipodi:namedview
     pagecolor="#ffffff"
     bordercolor="#666666"
     borderopacity="1"
     objecttolerance="10"
     gridtolerance="10"
     guidetolerance="10"
     inkscape:pageopacity="0"
     inkscape:pageshadow="2"
     inkscape:window-width="1920"
     inkscape:window-height="1022"
     id="namedview6"
     showgrid="false"
     fit-margin-top="0"
     fit-margin-left="0"
     fit-margin-right="0"
     fit-margin-bottom="0"
     inkscape:zoom="20.85965"
     inkscape:cx="-5.8300943"
     inkscape:cy="12.224155"
     inkscape:window-x="0"
     inkscape:window-y="33"
     inkscape:window-maximized="1"
     inkscape:current-layer="svg4" />
  <path
     d="M 5.625,9 H 4.375 C 4.16875,9 4,8.83125 4,8.625 V 7.375 C 4,7.16875 4.16875,7 4.375,7 h 1.25 C 5.83125,7 6,7.16875 6,7.375 v 1.25 C 6,8.83125 5.83125,9 5.625,9 Z M 9,8.625 V 7.375 C 9,7.16875 8.83125,7 8.625,7 H 7.375 C 7.16875,7 7,7.16875 7,7.375 v 1.25 C 7,8.83125 7.16875,9 7.375,9 h 1.25 C 8.83125,9 9,8.83125 9,8.625 Z m 3,0 V 7.375 C 12,7.16875 11.83125,7 11.625,7 h -1.25 C 10.16875,7 10,7.16875 10,7.375 v 1.25 C 10,8.83125 10.16875,9 10.375,9 h 1.25 C 11.83125,9 12,8.83125 12,8.625 Z m -3,3 v -1.25 C 9,10.16875 8.83125,10 8.625,10 H 7.375 C 7.16875,10 7,10.16875 7,10.375 v 1.25 C 7,11.83125 7.16875,12 7.375,12 h 1.25 C 8.83125,12 9,11.83125 9,11.625 Z m -3,0 v -1.25 C 6,10.16875 5.83125,10 5.625,10 H 4.375 C 4.16875,10 4,10.16875 4,10.375 v 1.25 C 4,11.83125 4.16875,12 4.375,12 h 1.25 C 5.83125,12 6,11.83125 6,11.625 Z m 6,0 v -1.25 C 12,10.16875 11.83125,10 11.625,10 h -1.25 C 10.16875,10 10,10.16875 10,10.375 v 1.25 C 10,11.83125 10.16875,12 10.375,12 h 1.25 C 11.83125,12 12,11.83125 12,11.625 Z M 15,3.5 v 11 C 15,15.32812 14.32813,16 13.5,16 H 2.5 C 1.67187,16 1,15.32812 1,14.5 V 3.5 C 1,2.67187 1.67187,2 2.5,2 H 4 V 0.375 C 4,0.16875 4.16875,0 4.375,0 h 1.25 C 5.83125,0 6,0.16875 6,0.375 V 2 h 4 V 0.375 C 10,0.16875 10.16875,0 10.375,0 h 1.25 C 11.83125,0 12,0.16875 12,0.375 V 2 h 1.5 C 14.32813,2 15,2.67187 15,3.5 Z M 13.5,14.3125 V 5 h -11 v 9.3125 C 2.5,14.41562 2.5844,14.5 2.6875,14.5 h 10.625 c 0.10313,0 0.1875,-0.0844 0.1875,-0.1875 z"
     id="path2"
     inkscape:connector-curvature="0"
     style="fill:#ffffff;stroke-width:0.03125;fill-opacity:1" />
</svg>
