<?xml version="1.0" encoding="UTF-8" standalone="no"?>
<svg
   xmlns:dc="http://purl.org/dc/elements/1.1/"
   xmlns:cc="http://creativecommons.org/ns#"
   xmlns:rdf="http://www.w3.org/1999/02/22-rdf-syntax-ns#"
   xmlns:svg="http://www.w3.org/2000/svg"
   xmlns="http://www.w3.org/2000/svg"
   xmlns:sodipodi="http://sodipodi.sourceforge.net/DTD/sodipodi-0.dtd"
   xmlns:inkscape="http://www.inkscape.org/namespaces/inkscape"
   width="1536"
   height="1536"
   viewBox="0 0 1536 1536"
   id="svg2"
   version="1.1"
   inkscape:version="0.91 r13725"
   sodipodi:docname="correctOriginal.svg"
   inkscape:export-filename="/home/pieter/IdeaProjects/ugent-dodona/src/main/resources/icons/correct@2x.png"
   inkscape:export-xdpi="1.875"
   inkscape:export-ydpi="1.875">
  <metadata
     id="metadata10">
    <rdf:RDF>
      <cc:Work
         rdf:about="">
        <dc:format>image/svg+xml</dc:format>
        <dc:type
           rdf:resource="http://purl.org/dc/dcmitype/StillImage" />
        <dc:title></dc:title>
      </cc:Work>
    </rdf:RDF>
  </metadata>
  <defs
     id="defs8" />
  <sodipodi:namedview
     pagecolor="#ffffff"
     bordercolor="#666666"
     borderopacity="1"
     objecttolerance="10"
     gridtolerance="10"
     guidetolerance="10"
     inkscape:pageopacity="0"
     inkscape:pageshadow="2"
     inkscape:window-width="1366"
     inkscape:window-height="710"
     id="namedview6"
     showgrid="false"
     inkscape:zoom="0.29065813"
     inkscape:cx="764.55953"
     inkscape:cy="768"
     inkscape:window-x="0"
     inkscape:window-y="30"
     inkscape:window-maximized="1"
     inkscape:current-layer="svg2"
     fit-margin-top="0"
     fit-margin-left="0"
     fit-margin-right="0"
     fit-margin-bottom="0" />
  <path
     d="m 1284,606 q 0,-28 -18,-46 l -91,-90 q -19,-19 -45,-19 -26,0 -45,19 L 677,877 451,651 q -19,-19 -45,-19 -26,0 -45,19 l -91,90 q -18,18 -18,46 0,27 18,45 l 362,362 q 19,19 45,19 27,0 46,-19 l 543,-543 q 18,-18 18,-45 z m 252,162 q 0,209 -103,385.5 Q 1330,1330 1153.5,1433 977,1536 768,1536 559,1536 382.5,1433 206,1330 103,1153.5 0,977 0,768 0,559 103,382.5 206,206 382.5,103 559,0 768,0 977,0 1153.5,103 1330,206 1433,382.5 1536,559 1536,768 Z"
     id="path4"
     style="fill:#228b22;fill-opacity:1"
     inkscape:connector-curvature="0"
     inkscape:export-xdpi="0.94"
     inkscape:export-ydpi="0.94" />
</svg>
