<?xml version="1.0" encoding="UTF-8" standalone="no"?>
<svg
   xmlns:dc="http://purl.org/dc/elements/1.1/"
   xmlns:cc="http://creativecommons.org/ns#"
   xmlns:rdf="http://www.w3.org/1999/02/22-rdf-syntax-ns#"
   xmlns:svg="http://www.w3.org/2000/svg"
   xmlns="http://www.w3.org/2000/svg"
   xmlns:sodipodi="http://sodipodi.sourceforge.net/DTD/sodipodi-0.dtd"
   xmlns:inkscape="http://www.inkscape.org/namespaces/inkscape"
   aria-hidden="true"
   focusable="false"
   data-prefix="fas"
   data-icon="book"
   class="svg-inline--fa fa-book fa-w-14"
   role="img"
   viewBox="0 0 32.000001 32"
   version="1.1"
   id="svg4"
   sodipodi:docname="book-solid.svg"
   width="32"
   height="32"
   inkscape:version="0.92.3 (2405546, 2018-03-11)">
  <metadata
     id="metadata10">
    <rdf:RDF>
      <cc:Work
         rdf:about="">
        <dc:format>image/svg+xml</dc:format>
        <dc:type
           rdf:resource="http://purl.org/dc/dcmitype/StillImage" />
        <dc:title></dc:title>
      </cc:Work>
    </rdf:RDF>
  </metadata>
  <defs
     id="defs8" />
  <sodipodi:namedview
     pagecolor="#ffffff"
     bordercolor="#666666"
     borderopacity="1"
     objecttolerance="10"
     gridtolerance="10"
     guidetolerance="10"
     inkscape:pageopacity="0"
     inkscape:pageshadow="2"
     inkscape:window-width="1920"
     inkscape:window-height="1022"
     id="namedview6"
     showgrid="false"
     fit-margin-top="0"
     fit-margin-left="0"
     fit-margin-right="0"
     fit-margin-bottom="0"
     inkscape:zoom="5.2149125"
     inkscape:cx="-34.363714"
     inkscape:cy="45.491167"
     inkscape:window-x="0"
     inkscape:window-y="33"
     inkscape:window-maximized="1"
     inkscape:current-layer="svg4" />
  <path
     d="M 30.000005,22.500004 V 1.5000002 C 30.000005,0.6687451 29.331252,0 28.500004,0 H 7.999996 C 4.6875004,0 1.999995,2.6874979 1.999995,6.0000008 V 25.999999 C 1.999995,29.312502 4.6875004,32 7.999996,32 h 20.500008 c 0.831248,0 1.500001,-0.668745 1.500001,-1.5 v -0.999998 c 0,-0.46875 -0.218753,-0.893753 -0.556253,-1.168748 -0.2625,-0.962505 -0.2625,-3.706253 0,-4.66875 0.3375,-0.268755 0.556253,-0.69375 0.556253,-1.1625 z M 9.999999,8.3749958 c 0,-0.20625 0.16875,-0.375 0.375,-0.375 h 13.250005 c 0.20625,0 0.375,0.16875 0.375,0.375 v 1.250003 c 0,0.20625 -0.16875,0.375 -0.375,0.375 H 10.374999 c -0.20625,0 -0.375,-0.16875 -0.375,-0.375 z m 0,4.0000062 c 0,-0.20625 0.16875,-0.375 0.375,-0.375 h 13.250005 c 0.20625,0 0.375,0.16875 0.375,0.375 v 1.249995 c 0,0.20625 -0.16875,0.375 -0.375,0.375 H 10.374999 c -0.20625,0 -0.375,-0.16875 -0.375,-0.375 z m 15.837505,15.625 H 7.999996 c -1.1062502,0 -1.9999954,-0.893753 -1.9999954,-2.000003 0,-1.099995 0.9000002,-1.999995 1.9999954,-1.999995 h 17.837508 c -0.118755,1.06875 -0.118755,2.931248 0,3.999998 z"
     id="path2"
     inkscape:connector-curvature="0"
     style="fill:#ffffff;stroke-width:0.06250001;fill-opacity:1" />
</svg>
