<?xml version="1.0" encoding="UTF-8" standalone="no"?>
<svg
    xmlns:dc="http://purl.org/dc/elements/1.1/"
    xmlns:cc="http://creativecommons.org/ns#"
    xmlns:rdf="http://www.w3.org/1999/02/22-rdf-syntax-ns#"
    xmlns="http://www.w3.org/2000/svg"
    xmlns:sodipodi="http://sodipodi.sourceforge.net/DTD/sodipodi-0.dtd"
    xmlns:inkscape="http://www.inkscape.org/namespaces/inkscape"
    aria-hidden="true"
    focusable="false"
    data-prefix="far"
    data-icon="calendar-check"
    class="svg-inline--fa fa-calendar-check fa-w-14"
    role="img"
    viewBox="0 0 32 32"
    version="1.1"
    id="svg4"
    sodipodi:docname="deadline-check.svg"
    width="32"
    height="32"
    inkscape:version="0.92.3 (2405546, 2018-03-11)">
  <metadata
     id="metadata10">
    <rdf:RDF>
      <cc:Work
         rdf:about="">
        <dc:format>image/svg+xml</dc:format>
        <dc:type
           rdf:resource="http://purl.org/dc/dcmitype/StillImage" />
        <dc:title></dc:title>
      </cc:Work>
    </rdf:RDF>
  </metadata>
  <defs
     id="defs8" />
  <sodipodi:namedview
     pagecolor="#ffffff"
     bordercolor="#666666"
     borderopacity="1"
     objecttolerance="10"
     gridtolerance="10"
     guidetolerance="10"
     inkscape:pageopacity="0"
     inkscape:pageshadow="2"
     inkscape:window-width="1920"
     inkscape:window-height="1022"
     id="namedview6"
     showgrid="false"
     fit-margin-top="0"
     fit-margin-left="0"
     fit-margin-right="0"
     fit-margin-bottom="0"
     inkscape:zoom="5.2149125"
     inkscape:cx="27.30947"
     inkscape:cy="6.6500078"
     inkscape:window-x="0"
     inkscape:window-y="30"
     inkscape:window-maximized="1"
     inkscape:current-layer="svg4" />
  <path
     d="M 27.000001,4 H 24 V 0.75 C 24,0.335812 23.664188,0 23.250001,0 H 20.75 C 20.335813,0 20,0.335812 20,0.75 V 4 H 12 V 0.75 C 12,0.335812 11.664188,0 11.250001,0 H 8.75 C 8.335813,0 8,0.335812 8,0.75 V 4 H 5 C 3.343125,4 2,5.343125 2,7 v 22 c 0,1.656875 1.343125,3 3,3 H 27.000001 C 28.656875,32 30,30.656875 30,29 V 7 C 30,5.343125 28.656875,4 27.000001,4 Z m -0.375,25 H 5.375 A 0.375,0.375 0 0 1 5,28.625 V 10 h 22.000001 v 18.625 a 0.375,0.375 0 0 1 -0.375,0.375 z m -3.303063,-12.540625 -8.894312,8.823062 c -0.294063,0.291688 -0.768938,0.289813 -1.060688,-0.0043 L 8.67375,20.547 C 8.382063,20.252938 8.383938,19.778062 8.67805,19.486312 l 1.419937,-1.4085 c 0.294063,-0.291687 0.768938,-0.289812 1.060625,0.0043 l 2.756499,2.778813 6.942,-6.886312 c 0.294062,-0.291688 0.768937,-0.289813 1.060688,0.0043 l 1.4085,1.419875 c 0.291687,0.294062 0.28975,0.768937 -0.0043,1.060625 z"
     id="path2"
     style="fill:#ffffff;fill-opacity:1;stroke-width:0.0625"
     inkscape:connector-curvature="0" />
</svg>
