<?xml version="1.0" encoding="UTF-8" standalone="no"?>
<svg
   xmlns:dc="http://purl.org/dc/elements/1.1/"
   xmlns:cc="http://creativecommons.org/ns#"
   xmlns:rdf="http://www.w3.org/1999/02/22-rdf-syntax-ns#"
   xmlns:svg="http://www.w3.org/2000/svg"
   xmlns="http://www.w3.org/2000/svg"
   xmlns:sodipodi="http://sodipodi.sourceforge.net/DTD/sodipodi-0.dtd"
   xmlns:inkscape="http://www.inkscape.org/namespaces/inkscape"
   width="32"
   height="32"
   viewBox="0 0 32 32"
   version="1.1"
   id="svg4"
   sodipodi:docname="error.svg"
   inkscape:version="0.92.3 (2405546, 2018-03-11)">
  <metadata
     id="metadata10">
    <rdf:RDF>
      <cc:Work
         rdf:about="">
        <dc:format>image/svg+xml</dc:format>
        <dc:type
           rdf:resource="http://purl.org/dc/dcmitype/StillImage" />
        <dc:title></dc:title>
      </cc:Work>
    </rdf:RDF>
  </metadata>
  <defs
     id="defs8" />
  <sodipodi:namedview
     pagecolor="#ffffff"
     bordercolor="#666666"
     borderopacity="1"
     objecttolerance="10"
     gridtolerance="10"
     guidetolerance="10"
     inkscape:pageopacity="0"
     inkscape:pageshadow="2"
     inkscape:window-width="1920"
     inkscape:window-height="1022"
     id="namedview6"
     showgrid="false"
     inkscape:zoom="16.857143"
     inkscape:cx="19.609607"
     inkscape:cy="9.2645004"
     inkscape:window-x="0"
     inkscape:window-y="30"
     inkscape:window-maximized="1"
     inkscape:current-layer="svg4" />
  <path
     d="m 24.40302,8.4230873 q 0.346153,0.384616 0.134619,0.846152 L 14.153025,31.51923 Q 13.903024,32 13.345334,32 q -0.07692,0 -0.269232,-0.03845 -0.326923,-0.09617 -0.490384,-0.365389 -0.163463,-0.269232 -0.08654,-0.576923 l 3.788457,-15.538455 -7.8076895,1.942308 q -0.076922,0.01922 -0.2307685,0.01922 -0.346154,0 -0.596153,-0.211538 Q 7.3068742,16.94232 7.4030275,16.480782 L 11.268411,0.61540265 q 0.07692,-0.2692313 0.307692,-0.4423091 Q 11.806872,-2.5e-7 12.114564,-2.5e-7 h 6.30769 q 0.365384,0 0.615384,0.2403856 0.25,0.2403837 0.25,0.5673062 0,0.1538567 -0.09615,0.34615365 l -3.288464,8.9038408 7.615382,-1.8846128 q 0.153856,-0.03845 0.230771,-0.03845 0.365382,0 0.653843,0.288458 z"
     id="path2"
     style="fill:#ffffff;fill-opacity:1;stroke-width:0.01923077"
     inkscape:connector-curvature="0" />
</svg>
