<?xml version="1.0" encoding="UTF-8" standalone="no"?>
<svg
   xmlns:dc="http://purl.org/dc/elements/1.1/"
   xmlns:cc="http://creativecommons.org/ns#"
   xmlns:rdf="http://www.w3.org/1999/02/22-rdf-syntax-ns#"
   xmlns:svg="http://www.w3.org/2000/svg"
   xmlns="http://www.w3.org/2000/svg"
   xmlns:sodipodi="http://sodipodi.sourceforge.net/DTD/sodipodi-0.dtd"
   xmlns:inkscape="http://www.inkscape.org/namespaces/inkscape"
   width="32"
   height="32"
   viewBox="0 0 32 32"
   version="1.1"
   id="svg4"
   sodipodi:docname="error.svg"
   inkscape:version="0.92.3 (2405546, 2018-03-11)">
  <metadata
     id="metadata10">
    <rdf:RDF>
      <cc:Work
         rdf:about="">
        <dc:format>image/svg+xml</dc:format>
        <dc:type
           rdf:resource="http://purl.org/dc/dcmitype/StillImage" />
        <dc:title></dc:title>
      </cc:Work>
    </rdf:RDF>
  </metadata>
  <defs
     id="defs8" />
  <sodipodi:namedview
     pagecolor="#ffffff"
     bordercolor="#666666"
     borderopacity="1"
     objecttolerance="10"
     gridtolerance="10"
     guidetolerance="10"
     inkscape:pageopacity="0"
     inkscape:pageshadow="2"
     inkscape:window-width="1920"
     inkscape:window-height="1022"
     id="namedview6"
     showgrid="false"
     showguides="false"
     inkscape:zoom="11.9198"
     inkscape:cx="-1.6839252"
     inkscape:cy="14.210269"
     inkscape:window-x="0"
     inkscape:window-y="30"
     inkscape:window-maximized="1"
     inkscape:current-layer="svg4"
     fit-margin-top="0"
     fit-margin-left="0"
     fit-margin-right="0"
     fit-margin-bottom="0" />
  <path
     d="m 32,25.75084 q 0,1.077441 -0.754208,1.831651 L 27.582493,31.24579 Q 26.828283,32 25.750842,32 24.6734,32 23.919194,31.24579 L 15.999999,23.326596 8.0808075,31.24579 Q 7.3266024,32 6.2491589,32 5.1717195,32 4.4175083,31.24579 L 0.7542111,27.582491 Q 0,26.828281 0,25.75084 0,24.673398 0.7542111,23.919192 L 8.6734033,16.000002 0.7542111,8.0808056 Q 0,7.3266007 0,6.249157 0,5.1717176 0.7542111,4.4175084 L 4.4175083,0.7542091 Q 5.1717195,0 6.2491589,0 7.3266024,0 8.0808075,0.7542091 L 15.999999,8.6734016 23.919194,0.7542091 Q 24.6734,0 25.750842,0 q 1.077441,0 1.831651,0.7542091 l 3.663299,3.6632993 Q 32,5.1717176 32,6.249157 32,7.3266007 31.245792,8.0808056 l -7.919194,7.9191964 7.919194,7.91919 Q 32,24.673398 32,25.75084 Z"
     id="path2"
     style="fill:#ffffff;fill-opacity:1;stroke:none;stroke-width:0.02693605;stroke-opacity:1"
     inkscape:connector-curvature="0" />
</svg>
