<?xml version="1.0" encoding="UTF-8" standalone="no"?>
<svg
    xmlns:dc="http://purl.org/dc/elements/1.1/"
    xmlns:cc="http://creativecommons.org/ns#"
    xmlns:rdf="http://www.w3.org/1999/02/22-rdf-syntax-ns#"
    xmlns="http://www.w3.org/2000/svg"
    xmlns:sodipodi="http://sodipodi.sourceforge.net/DTD/sodipodi-0.dtd"
    xmlns:inkscape="http://www.inkscape.org/namespaces/inkscape"
    width="16"
    height="16"
    viewBox="0 0 16 16"
    id="svg4202"
    version="1.1"
    inkscape:version="0.92.3 (2405546, 2018-03-11)"
    sodipodi:docname="exercise-wrong.svg">
  <metadata
     id="metadata4210">
    <rdf:RDF>
      <cc:Work
         rdf:about="">
        <dc:format>image/svg+xml</dc:format>
        <dc:type
           rdf:resource="http://purl.org/dc/dcmitype/StillImage" />
        <dc:title></dc:title>
      </cc:Work>
    </rdf:RDF>
  </metadata>
  <defs
     id="defs4208" />
  <sodipodi:namedview
     pagecolor="#ffffff"
     bordercolor="#666666"
     borderopacity="1"
     objecttolerance="10"
     gridtolerance="10"
     guidetolerance="10"
     inkscape:pageopacity="0"
     inkscape:pageshadow="2"
     inkscape:window-width="1920"
     inkscape:window-height="1020"
     id="namedview4206"
     showgrid="false"
     fit-margin-top="0"
     fit-margin-left="0"
     fit-margin-right="0"
     fit-margin-bottom="0"
     inkscape:zoom="13.153685"
     inkscape:cx="17.056342"
     inkscape:cy="0.71882572"
     inkscape:window-x="0"
     inkscape:window-y="35"
     inkscape:window-maximized="1"
     inkscape:current-layer="svg4202" />
  <path
     d="m 11.96875,10.35417 q 0,-0.27084 -0.19792,-0.46875 L 9.88542,8 11.77083,6.11458 q 0.19792,-0.19791 0.19792,-0.46875 0,-0.28125 -0.19792,-0.47916 l -0.9375,-0.9375 q -0.19791,-0.19792 -0.47916,-0.19792 -0.27084,0 -0.46875,0.19792 L 8,6.11458 6.11458,4.22917 Q 5.91667,4.03125 5.64583,4.03125 q -0.28125,0 -0.47916,0.19792 l -0.9375,0.9375 q -0.19792,0.19791 -0.19792,0.47916 0,0.27084 0.19792,0.46875 L 6.11458,8 4.22917,9.88542 q -0.19792,0.19791 -0.19792,0.46875 0,0.28125 0.19792,0.47916 l 0.9375,0.9375 q 0.19791,0.19792 0.47916,0.19792 0.27084,0 0.46875,-0.19792 L 8,9.88542 9.88542,11.77083 q 0.19791,0.19792 0.46875,0.19792 0.28125,0 0.47916,-0.19792 l 0.9375,-0.9375 q 0.19792,-0.19791 0.19792,-0.47916 z M 16,8 q 0,2.17708 -1.07292,4.01562 -1.07291,1.83855 -2.91146,2.91146 Q 10.17708,16 8,16 5.82292,16 3.98437,14.92708 2.14583,13.85417 1.07292,12.01562 0,10.17708 0,8 0,5.82292 1.07292,3.98437 2.14583,2.14583 3.98437,1.07292 5.82292,0 8,0 10.17708,0 12.01562,1.07292 13.85417,2.14583 14.92708,3.98437 16,5.82292 16,8 Z"
     id="path4204"
     style="fill:#ffffff;fill-opacity:1;stroke-width:0.01041667"
     inkscape:connector-curvature="0"
     inkscape:export-xdpi="1.88"
     inkscape:export-ydpi="1.88" />
</svg>
