<?xml version="1.0" encoding="UTF-8" standalone="no"?>
<svg
   xmlns:dc="http://purl.org/dc/elements/1.1/"
   xmlns:cc="http://creativecommons.org/ns#"
   xmlns:rdf="http://www.w3.org/1999/02/22-rdf-syntax-ns#"
   xmlns:svg="http://www.w3.org/2000/svg"
   xmlns="http://www.w3.org/2000/svg"
   xmlns:sodipodi="http://sodipodi.sourceforge.net/DTD/sodipodi-0.dtd"
   xmlns:inkscape="http://www.inkscape.org/namespaces/inkscape"
   width="16"
   height="16"
   viewBox="0 0 16 16"
   id="svg2"
   version="1.1"
   inkscape:version="0.92.3 (2405546, 2018-03-11)"
   sodipodi:docname="exercise-correct_dark.svg"
   inkscape:export-filename="/home/pieter/IdeaProjects/ugent-dodona/src/main/resources/icons/correct@2x.png"
   inkscape:export-xdpi="1.875"
   inkscape:export-ydpi="1.875">
  <metadata
     id="metadata10">
    <rdf:RDF>
      <cc:Work
         rdf:about="">
        <dc:format>image/svg+xml</dc:format>
        <dc:type
           rdf:resource="http://purl.org/dc/dcmitype/StillImage" />
        <dc:title />
      </cc:Work>
    </rdf:RDF>
  </metadata>
  <defs
     id="defs8" />
  <sodipodi:namedview
     pagecolor="#ffffff"
     bordercolor="#666666"
     borderopacity="1"
     objecttolerance="10"
     gridtolerance="10"
     guidetolerance="10"
     inkscape:pageopacity="0"
     inkscape:pageshadow="2"
     inkscape:window-width="1920"
     inkscape:window-height="1020"
     id="namedview6"
     showgrid="false"
     inkscape:zoom="26.307371"
     inkscape:cx="3.0498977"
     inkscape:cy="15.849286"
     inkscape:window-x="0"
     inkscape:window-y="35"
     inkscape:window-maximized="1"
     inkscape:current-layer="svg2"
     fit-margin-top="0"
     fit-margin-left="0"
     fit-margin-right="0"
     fit-margin-bottom="0" />
  <path
     d="m 13.375,6.3125 q 0,-0.29167 -0.1875,-0.47917 L 12.23958,4.89583 Q 12.04167,4.69792 11.77083,4.69792 11.5,4.69792 11.30208,4.89583 L 7.05208,9.13542 4.69792,6.78125 Q 4.5,6.58333 4.22917,6.58333 q -0.27084,0 -0.46875,0.19792 L 2.8125,7.71875 Q 2.625,7.90625 2.625,8.19792 q 0,0.28125 0.1875,0.46875 l 3.77083,3.77083 q 0.19792,0.19792 0.46875,0.19792 0.28125,0 0.47917,-0.19792 L 13.1875,6.78125 Q 13.375,6.59375 13.375,6.3125 Z M 16,8 q 0,2.17708 -1.07292,4.01562 -1.07291,1.83855 -2.91146,2.91146 Q 10.17708,16 8,16 5.82292,16 3.98437,14.92708 2.14583,13.85417 1.07292,12.01562 0,10.17708 0,8 0,5.82292 1.07292,3.98437 2.14583,2.14583 3.98437,1.07292 5.82292,0 8,0 10.17708,0 12.01562,1.07292 13.85417,2.14583 14.92708,3.98437 16,5.82292 16,8 Z"
     id="path4"
     style="fill:#499c54;fill-opacity:1;stroke-width:0.01041667"
     inkscape:connector-curvature="0"
     inkscape:export-xdpi="0.94"
     inkscape:export-ydpi="0.94" />
</svg>
