<?xml version="1.0" encoding="UTF-8" standalone="no"?>
<svg
   xmlns:dc="http://purl.org/dc/elements/1.1/"
   xmlns:cc="http://creativecommons.org/ns#"
   xmlns:rdf="http://www.w3.org/1999/02/22-rdf-syntax-ns#"
   xmlns:svg="http://www.w3.org/2000/svg"
   xmlns="http://www.w3.org/2000/svg"
   xmlns:sodipodi="http://sodipodi.sourceforge.net/DTD/sodipodi-0.dtd"
   xmlns:inkscape="http://www.inkscape.org/namespaces/inkscape"
   width="1536"
   height="1536"
   viewBox="0 0 1536 1536"
   id="svg4202"
   version="1.1"
   inkscape:version="0.91 r13725"
   sodipodi:docname="incorrectOriginal.svg">
  <metadata
     id="metadata4210">
    <rdf:RDF>
      <cc:Work
         rdf:about="">
        <dc:format>image/svg+xml</dc:format>
        <dc:type
           rdf:resource="http://purl.org/dc/dcmitype/StillImage" />
        <dc:title></dc:title>
      </cc:Work>
    </rdf:RDF>
  </metadata>
  <defs
     id="defs4208" />
  <sodipodi:namedview
     pagecolor="#ffffff"
     bordercolor="#666666"
     borderopacity="1"
     objecttolerance="10"
     gridtolerance="10"
     guidetolerance="10"
     inkscape:pageopacity="0"
     inkscape:pageshadow="2"
     inkscape:window-width="1366"
     inkscape:window-height="710"
     id="namedview4206"
     showgrid="false"
     fit-margin-top="0"
     fit-margin-left="0"
     fit-margin-right="0"
     fit-margin-bottom="0"
     inkscape:zoom="0.29065813"
     inkscape:cx="764.55953"
     inkscape:cy="768"
     inkscape:window-x="0"
     inkscape:window-y="30"
     inkscape:window-maximized="1"
     inkscape:current-layer="svg4202" />
  <path
     d="m 1149,994 q 0,-26 -19,-45 L 949,768 1130,587 q 19,-19 19,-45 0,-27 -19,-46 l -90,-90 q -19,-19 -46,-19 -26,0 -45,19 L 768,587 587,406 q -19,-19 -45,-19 -27,0 -46,19 l -90,90 q -19,19 -19,46 0,26 19,45 L 587,768 406,949 q -19,19 -19,45 0,27 19,46 l 90,90 q 19,19 46,19 26,0 45,-19 l 181,-181 181,181 q 19,19 45,19 27,0 46,-19 l 90,-90 q 19,-19 19,-46 z m 387,-226 q 0,209 -103,385.5 Q 1330,1330 1153.5,1433 977,1536 768,1536 559,1536 382.5,1433 206,1330 103,1153.5 0,977 0,768 0,559 103,382.5 206,206 382.5,103 559,0 768,0 977,0 1153.5,103 1330,206 1433,382.5 1536,559 1536,768 Z"
     id="path4204"
     style="fill:#b22222;fill-opacity:1"
     inkscape:connector-curvature="0"
     inkscape:export-xdpi="1.88"
     inkscape:export-ydpi="1.88" />
</svg>
