<?xml version="1.0" encoding="UTF-8" standalone="no"?>
<svg
   xmlns:dc="http://purl.org/dc/elements/1.1/"
   xmlns:cc="http://creativecommons.org/ns#"
   xmlns:rdf="http://www.w3.org/1999/02/22-rdf-syntax-ns#"
   xmlns:svg="http://www.w3.org/2000/svg"
   xmlns="http://www.w3.org/2000/svg"
   xmlns:sodipodi="http://sodipodi.sourceforge.net/DTD/sodipodi-0.dtd"
   xmlns:inkscape="http://www.inkscape.org/namespaces/inkscape"
   aria-hidden="true"
   focusable="false"
   data-prefix="fas"
   data-icon="question"
   class="svg-inline--fa fa-question fa-w-12"
   role="img"
   viewBox="0 0 32 32"
   version="1.1"
   id="svg4"
   sodipodi:docname="question-solid.svg"
   width="32"
   height="32"
   inkscape:version="0.92.3 (2405546, 2018-03-11)">
  <metadata
     id="metadata10">
    <rdf:RDF>
      <cc:Work
         rdf:about="">
        <dc:format>image/svg+xml</dc:format>
        <dc:type
           rdf:resource="http://purl.org/dc/dcmitype/StillImage" />
        <dc:title></dc:title>
      </cc:Work>
    </rdf:RDF>
  </metadata>
  <defs
     id="defs8" />
  <sodipodi:namedview
     pagecolor="#ffffff"
     bordercolor="#666666"
     borderopacity="1"
     objecttolerance="10"
     gridtolerance="10"
     guidetolerance="10"
     inkscape:pageopacity="0"
     inkscape:pageshadow="2"
     inkscape:window-width="1920"
     inkscape:window-height="1022"
     id="namedview6"
     showgrid="false"
     fit-margin-top="0"
     fit-margin-left="0"
     fit-margin-right="0"
     fit-margin-bottom="0"
     inkscape:zoom="5.2149125"
     inkscape:cx="-55.53193"
     inkscape:cy="7.9759741"
     inkscape:window-x="0"
     inkscape:window-y="33"
     inkscape:window-maximized="1"
     inkscape:current-layer="svg4" />
  <path
     d="m 16.029426,0 c -4.98868,0 -8.2198702,2.04394 -10.7566802,5.68912 -0.46019,0.66125 -0.31832,1.56788 0.32362,2.05463 l 2.69613,2.04431 c 0.64831,0.49156 1.57075,0.37663 2.0783102,-0.25925 1.56556,-1.96131 2.72687,-3.09056 5.17231,-3.09056 1.92275,0 4.301,1.23744 4.301,3.10194 0,1.4095 -1.16356,2.13337 -3.06206,3.19775 -2.21394,1.24125 -5.14369,2.786 -5.14369,6.65031 V 20 c 0,0.82844 0.67156,1.5 1.5,1.5 h 4.52944 c 0.82844,0 1.5,-0.67156 1.5,-1.5 v -0.36081 c 0,-2.67875 7.82925,-2.79031 7.82925,-10.03919 6e-5,-5.459 -5.66256,-9.6 -10.96763,-9.6 z m -0.62631,23.34119 c -2.38725,0 -4.32944,1.94218 -4.32944,4.32943 0,2.38719 1.94219,4.32938 4.32944,4.32938 2.38725,0 4.32944,-1.94219 4.32944,-4.32944 0,-2.38725 -1.94219,-4.32937 -4.32944,-4.32937 z"
     id="path2"
     inkscape:connector-curvature="0"
     style="fill:#ffffff;stroke-width:0.0625;fill-opacity:1" />
</svg>
