<?xml version="1.0" encoding="UTF-8" standalone="no"?>
<svg
    xmlns:dc="http://purl.org/dc/elements/1.1/"
    xmlns:cc="http://creativecommons.org/ns#"
    xmlns:rdf="http://www.w3.org/1999/02/22-rdf-syntax-ns#"
    xmlns="http://www.w3.org/2000/svg"
    xmlns:sodipodi="http://sodipodi.sourceforge.net/DTD/sodipodi-0.dtd"
    xmlns:inkscape="http://www.inkscape.org/namespaces/inkscape"
    width="16"
    height="16"
    viewBox="0 0 16 16"
    id="svg2"
    version="1.1"
    inkscape:version="0.92.3 (2405546, 2018-03-11)"
    sodipodi:docname="submit-action.svg">
  <metadata
     id="metadata10">
    <rdf:RDF>
      <cc:Work
         rdf:about="">
        <dc:format>image/svg+xml</dc:format>
        <dc:type
           rdf:resource="http://purl.org/dc/dcmitype/StillImage" />
        <dc:title></dc:title>
      </cc:Work>
    </rdf:RDF>
  </metadata>
  <defs
     id="defs8" />
  <sodipodi:namedview
     pagecolor="#ffffff"
     bordercolor="#666666"
     borderopacity="1"
     objecttolerance="10"
     gridtolerance="10"
     guidetolerance="10"
     inkscape:pageopacity="0"
     inkscape:pageshadow="2"
     inkscape:window-width="1920"
     inkscape:window-height="1020"
     id="namedview6"
     showgrid="false"
     inkscape:zoom="37.204241"
     inkscape:cx="8.7158496"
     inkscape:cy="9.7794627"
     inkscape:window-x="0"
     inkscape:window-y="35"
     inkscape:window-maximized="1"
     inkscape:current-layer="svg2" />
  <path
     d="m 15.04165,4.7108665 q 0,0.3634403 -0.254408,0.6178498 L 8.2089776,11.906979 6.9732819,13.142674 q -0.2544084,0.254409 -0.6178482,0.254409 -0.3634396,0 -0.617848,-0.254409 L 4.5018901,11.906979 1.2127576,8.6178476 Q 0.9583497,8.3634385 0.9583497,7.9999994 q 0,-0.3634412 0.2544079,-0.6178471 L 2.4484537,6.1464568 q 0.2544078,-0.2544086 0.6178482,-0.2544086 0.3634397,0 0.6178482,0.2544086 L 6.3554337,8.8268262 12.31585,2.857322 q 0.254408,-0.2544054 0.617848,-0.2544054 0.363441,0 0.617848,0.2544054 l 1.235696,1.2356987 Q 15.04165,4.347427 15.04165,4.7108665 Z"
     id="path4"
     style="fill:#1e64c8;fill-opacity:1;stroke:none;stroke-width:0.009086;stroke-opacity:1"
     inkscape:connector-curvature="0" />
</svg>
