<?xml version="1.0" encoding="UTF-8" standalone="no"?>
<svg
   xmlns:dc="http://purl.org/dc/elements/1.1/"
   xmlns:cc="http://creativecommons.org/ns#"
   xmlns:rdf="http://www.w3.org/1999/02/22-rdf-syntax-ns#"
   xmlns:svg="http://www.w3.org/2000/svg"
   xmlns="http://www.w3.org/2000/svg"
   xmlns:sodipodi="http://sodipodi.sourceforge.net/DTD/sodipodi-0.dtd"
   xmlns:inkscape="http://www.inkscape.org/namespaces/inkscape"
   aria-hidden="true"
   focusable="false"
   data-prefix="fas"
   data-icon="user-times"
   class="svg-inline--fa fa-user-times fa-w-20"
   role="img"
   viewBox="0 0 32 32"
   version="1.1"
   id="svg4"
   sodipodi:docname="user-invalid_dark.svg"
   width="32"
   height="32"
   inkscape:version="0.92.3 (2405546, 2018-03-11)">
  <metadata
     id="metadata10">
    <rdf:RDF>
      <cc:Work
         rdf:about="">
        <dc:format>image/svg+xml</dc:format>
        <dc:type
           rdf:resource="http://purl.org/dc/dcmitype/StillImage" />
        <dc:title></dc:title>
      </cc:Work>
    </rdf:RDF>
  </metadata>
  <defs
     id="defs8" />
  <sodipodi:namedview
     pagecolor="#ffffff"
     bordercolor="#666666"
     borderopacity="1"
     objecttolerance="10"
     gridtolerance="10"
     guidetolerance="10"
     inkscape:pageopacity="0"
     inkscape:pageshadow="2"
     inkscape:window-width="1920"
     inkscape:window-height="1022"
     id="namedview6"
     showgrid="false"
     fit-margin-top="0"
     fit-margin-left="0"
     fit-margin-right="0"
     fit-margin-bottom="0"
     inkscape:zoom="10.429825"
     inkscape:cx="-15.474935"
     inkscape:cy="2.1391514"
     inkscape:window-x="0"
     inkscape:window-y="33"
     inkscape:window-maximized="1"
     inkscape:current-layer="svg4" />
  <path
     d="m 29.48346,15.19991 2.28026,-2.28027 c 0.31504,-0.31504 0.31504,-0.8251 0,-1.14013 l -1.14013,-1.14014 c -0.31504,-0.31504 -0.8251,-0.31504 -1.14013,0 l -2.28027,2.28027 -2.28027,-2.28027 c -0.31504,-0.31504 -0.8251,-0.31504 -1.14013,0 l -1.14014,1.14014 c -0.31503,0.31503 -0.31503,0.82509 0,1.14013 l 2.28027,2.28027 -2.28027,2.28026 c -0.31503,0.31504 -0.31503,0.8251 0,1.14014 l 1.14014,1.14013 c 0.31503,0.31504 0.82509,0.31504 1.14013,0 l 2.28027,-2.28027 2.28027,2.28027 c 0.31503,0.31504 0.82509,0.31504 1.14013,0 l 1.14013,-1.14013 c 0.31504,-0.31504 0.31504,-0.8251 0,-1.14014 z M 11.20131,16 c 3.53542,0 6.40075,-2.86534 6.40075,-6.4007502 0,-3.5354096 -2.86533,-6.4007496 -6.40075,-6.4007496 -3.53541,0 -6.40075,2.86534 -6.40075,6.4007496 C 4.80056,13.13466 7.6659,16 11.20131,16 Z m 4.48053,1.60019 h -0.8351 c -1.11013,0.51006 -2.34527,0.80009 -3.64543,0.80009 -1.30015,0 -2.53029,-0.29003 -3.64542,-0.80009 H 6.72079 C 3.01035,17.60019 0,20.61054 0,24.32098 v 2.08024 c 0,1.32515 1.07513,2.40028 2.40028,2.40028 h 17.60206 c 1.32516,0 2.40029,-1.07513 2.40029,-2.40028 v -2.08024 c 0,-3.71044 -3.01036,-6.72079 -6.72079,-6.72079 z"
     id="path2"
     inkscape:connector-curvature="0"
     style="fill:#c75450;stroke-width:0.05000586;fill-opacity:1" />
</svg>
